# xmcd CD database file
#
# Track frame offsets:
#	183
#	10715
#	22148
#	33223
#	46605
#	58980
#	71585
#	83670
#	96090
#	108148
#	119800
#	131430
#	144030
#	155788
#	169298
#	181978
#	195018
#	206098
#	218188
#	230478
#	242453
#
# Disc length: 3393 seconds
#
# Revision: 6
# Processed by: cddbd v1.5.2PL0 Copyright (c) Steve Scherf et al.
# Submitted via: CDex 1.79
#
DISCID=180d3f15
DTITLE=Lightnin' Hopkins - The Complete Aladdin Recordings CD2
DYEAR=1991
DGENRE=Blues
TTITLE0=Lightnin's Boogie
TTITLE1=Baby You're Not Going To Make A Fool Out of Me
TTITLE2=Daddy Will Be Home One Day
TTITLE3=Moon Rise Blues
TTITLE4=Howling Wolf
TTITLE5=Morning Blues
TTITLE6=Have To Let You Go
TTITLE7=Mama's Baby Child
TTITLE8=Mistreated Blues
TTITLE9=My California
TTITLE10=Honey Babe
TTITLE11=So Long
TTITLE12=See See Rider
TTITLE13=Unpredictable Woman
TTITLE14=I Just Don't Care
TTITLE15=Drinkin' Woman
TTITLE16=Abilene
TTITLE17=Shotgun
TTITLE18=Rollin' And Rollin'
TTITLE19=Tell It Like It Is
TTITLE20=Miss Loretta
EXTD=YEAR: 1991
EXTT0=
EXTT1=
EXTT2=
EXTT3=
EXTT4=
EXTT5=
EXTT6=
EXTT7=
EXTT8=
EXTT9=
EXTT10=
EXTT11=
EXTT12=
EXTT13=
EXTT14=
EXTT15=
EXTT16=
EXTT17=
EXTT18=
EXTT19=
EXTT20=
PLAYORDER=
